<svg xmlns="http://www.w3.org/2000/svg" width="1024" height="1024" viewBox="0 0 1024 1024" role="img" aria-label="SpotOn Sign app icon">
  <defs>
    <linearGradient id="tile-sign" x1="0.3127" y1="0.0364" x2="0.6873" y2="0.9636">
      <stop offset="0" stop-color="#6ecdf2"/>
      <stop offset="1" stop-color="#0b97da"/>
    </linearGradient>
    <linearGradient id="hl-sign" x1="0" y1="0" x2="0" y2="1">
      <stop offset="0" stop-color="#ffffff" stop-opacity="0.32"/>
      <stop offset="0.45" stop-color="#ffffff" stop-opacity="0"/>
    </linearGradient>
    <linearGradient id="sh-sign" x1="0" y1="0" x2="0" y2="1">
      <stop offset="0.5" stop-color="#0b567a" stop-opacity="0"/>
      <stop offset="1" stop-color="#0b567a" stop-opacity="0.32"/>
    </linearGradient>
  </defs>
  <rect x="0" y="0" width="1024" height="1024" rx="225" fill="url(#tile-sign)"/>
  <rect x="0" y="0" width="1024" height="1024" rx="225" fill="url(#sh-sign)"/>
  <rect x="0" y="0" width="1024" height="1024" rx="225" fill="url(#hl-sign)"/>
  <g transform="translate(233 233) scale(23.25)" fill="none" stroke="#fafafa" stroke-width="2.5" stroke-linecap="round" stroke-linejoin="round"><path d="M22 12.6344C18 16.1465 17.4279 10.621 15.3496 11.0165C13 11.4637 11.5 16.4445 13 16.4445C14.5 16.4445 12.5 10.5 10.5 12.5556C8.5 14.6111 7.85936 17.2946 6.23526 15.3025C-1.5 5.81446 4.99998 -1.14994 8.16322 3.45685C10.1653 6.37256 6.5 16.9769 2 22"/><path d="M9 21H19"/></g>
</svg>